<?xml version="1.0" encoding="utf-8"?>
<!-- Generator: Adobe Illustrator 24.0.2, SVG Export Plug-In . SVG Version: 6.00 Build 0)  -->
<svg version="1.1" id="e88f74fc-0cb0-4a76-a91d-208cfe4c7dcf"
	 xmlns="http://www.w3.org/2000/svg" xmlns:xlink="http://www.w3.org/1999/xlink" x="0px" y="0px" viewBox="0 0 128 128"
	 style="enable-background:new 0 0 128 128;" xml:space="preserve">
<style type="text/css">
	.st0{fill:#2ACF7C;}
</style>
<path class="st0" d="M19.3,47.5c0.1-3.2,0-6.4,0.5-9.6C21.7,26.5,27,17.2,36,9.9c9.5-7.7,20.4-10.9,32.5-9.7
	C79.8,1.3,89.4,6.2,97,14.6c8.5,9.3,12.3,20.3,11.7,32.9c-0.4,2.2-0.4,4.4-0.9,6.6c-0.9,4.1-2.3,8-4.3,11.7
	c-8.3,15.4-17.4,30.3-26.3,45.4c-2.7,4.6-5.4,9.3-8.2,13.8c-2,3.3-5.9,3.9-8.8,1.5c-0.6-0.5-1-1-1.3-1.6
	c-11.5-19.7-23.5-39.2-34.4-59.3c-2.4-4.4-3.8-9.1-4.7-14C19.5,50.3,19.2,48.9,19.3,47.5z M64,64.9c12.1,0,21.9-9.8,21.9-21.8
	c0-12-9.7-21.8-21.8-21.9c-12.1,0-22,9.8-22,21.8C42.2,55.1,52,64.9,64,64.9z"/>
</svg>
