<?xml version="1.0" encoding="utf-8"?>
<!-- Generator: Adobe Illustrator 24.0.2, SVG Export Plug-In . SVG Version: 6.00 Build 0)  -->
<svg version="1.1" id="e88f74fc-0cb0-4a76-a91d-208cfe4c7dcf"
	 xmlns="http://www.w3.org/2000/svg" xmlns:xlink="http://www.w3.org/1999/xlink" x="0px" y="0px" viewBox="0 0 128 128"
	 style="enable-background:new 0 0 128 128;" xml:space="preserve">
<style type="text/css">
	.st0{fill:#0077B6;}
	.st1{fill:#FDFDFE;}
	.st2{fill:#FDFEFE;}
</style>
<title>social-icons</title>
<path class="st0" d="M0,118.3V9.8c0.2-0.1,0.2-0.3,0.3-0.5c0.6-2.8,2.2-5.3,4.6-7C6.4,1.2,8.2,0.4,10,0h108c0.1,0.1,0.2,0.2,0.3,0.2
	c5.8,0.9,9.9,6,9.7,11.8c0,34.7,0,69.3,0,104c0,1.9-0.4,3.7-1.2,5.4c-2.3,4.5-6.1,6.6-11.1,6.6c-21.3,0-42.7,0-64,0
	c-13.2,0-26.3,0-39.5,0c-3.9,0.2-7.7-1.6-10.1-4.8C1.2,121.7,0.5,120,0,118.3z M70.2,54.9c0-1.4,0-2.8,0-4.2c0-2.4-1.3-3.7-3.7-3.7
	c-4.5,0-9,0-13.5,0c-2.7,0-3.9,1.2-3.9,3.9c0,19.7,0,39.4,0,59.1c0,2.7,1.2,3.9,3.9,3.9c4.4,0,8.8,0,13.2,0c2.9,0,4-1.2,4-4
	c0-10.1,0-20.2,0-30.2c0-3.4,0.8-6.7,2.3-9.7c2.3-4.4,6-6.1,10.9-5.7c4.2,0.4,6.9,2.7,8.4,6.7c0.9,2.5,1.3,5.2,1.2,7.9
	c0,10.5,0,20.9,0,31.4c0,2.5,1.2,3.7,3.7,3.8c4.7,0,9.4,0,14.1,0c2.5,0,3.7-1.2,3.7-3.8c0-11,0-22.1,0-33.1
	c0.1-4.9-0.5-9.7-1.8-14.5c-1.4-5-3.8-9.4-8.1-12.5c-3.5-2.4-7.6-3.7-11.8-3.9c-5.1-0.3-10.1,0.1-14.8,2.3
	C74.9,49.9,72.3,52.2,70.2,54.9z M39.6,80.4c0-9.7,0-19.5,0-29.2c0-2.9-1.2-4.1-4.1-4.1c-4.2,0-8.5,0-12.7,0c-3,0-4.2,1.2-4.2,4.2
	c0,19.5,0,39,0,58.5c0,2.9,1.2,4.2,4.2,4.2c4.2,0,8.3,0,12.5,0c3.3,0,4.4-1.1,4.4-4.4C39.6,99.8,39.6,90.1,39.6,80.4z M29.1,41.3
	c7.5,0,13.6-6.1,13.6-13.6c0-7.5-6.1-13.6-13.6-13.6c-7.5,0-13.6,6.1-13.6,13.6c0,0,0,0.1,0,0.1C15.5,35.3,21.6,41.3,29.1,41.3z"/>
<path class="st1" d="M70.2,54.9c2.1-2.7,4.7-5,7.8-6.5c4.7-2.2,9.7-2.6,14.8-2.3c4.2,0.1,8.3,1.5,11.8,3.9c4.3,3.1,6.7,7.5,8.1,12.5
	c1.2,4.7,1.8,9.6,1.8,14.5c0.1,11,0,22.1,0,33.1c0,2.6-1.2,3.8-3.7,3.8c-4.7,0-9.4,0-14.1,0c-2.5,0-3.7-1.2-3.7-3.8
	c0-10.5,0-20.9,0-31.4c0.1-2.7-0.4-5.3-1.2-7.9c-1.4-3.9-4.1-6.3-8.4-6.7c-4.8-0.5-8.6,1.3-10.9,5.7c-1.6,3-2.4,6.3-2.3,9.7
	c0,10.1,0,20.2,0,30.2c0,2.9-1.2,4-4,4c-4.4,0-8.8,0-13.2,0c-2.7,0-3.9-1.2-3.9-3.9c0-19.7,0-39.4,0-59.1c0-2.7,1.2-3.9,3.9-3.9
	c4.5,0,9,0,13.5,0c2.4,0,3.7,1.3,3.7,3.7C70.2,52.1,70.2,53.5,70.2,54.9z"/>
<path class="st2" d="M39.6,80.4c0,9.7,0,19.4,0,29.1c0,3.3-1.1,4.4-4.4,4.4c-4.2,0-8.3,0-12.5,0c-2.9,0-4.2-1.2-4.2-4.2
	c0-19.5,0-39,0-58.5c0-3,1.2-4.2,4.2-4.2c4.2,0,8.5,0,12.7,0c2.8,0,4.1,1.2,4.1,4.1C39.6,60.9,39.6,70.6,39.6,80.4z"/>
<path class="st1" d="M29.1,41.3c-7.5,0-13.6-6.1-13.6-13.6c0-7.5,6.1-13.6,13.6-13.6c7.5,0,13.6,6.1,13.6,13.6
	c0.1,7.5-6,13.6-13.5,13.7C29.2,41.3,29.1,41.3,29.1,41.3z"/>
</svg>
