<?xml version="1.0" encoding="utf-8"?>
<!-- Generator: Adobe Illustrator 24.0.2, SVG Export Plug-In . SVG Version: 6.00 Build 0)  -->
<svg version="1.1" id="e88f74fc-0cb0-4a76-a91d-208cfe4c7dcf"
	 xmlns="http://www.w3.org/2000/svg" xmlns:xlink="http://www.w3.org/1999/xlink" x="0px" y="0px" viewBox="0 0 128 128"
	 style="enable-background:new 0 0 128 128;" xml:space="preserve">
<style type="text/css">
	.st0{fill-rule:evenodd;clip-rule:evenodd;fill:#7700bb;}
</style>
<title>social-icons</title>
<path class="st0" d="M64,1.6c-35.3,0-64,28.7-64,64c0,27.5,17.6,52,43.8,60.7c3.2,0.6,4.4-1.4,4.4-3c0-1.5-0.1-6.6-0.1-11.9
	c-16.1,3-20.2-3.9-21.5-7.5c-0.7-1.8-3.8-7.5-6.6-9c-2.2-1.2-5.4-4.2-0.1-4.2c5-0.1,8.6,4.6,9.8,6.6c5.8,9.7,15,7,18.6,5.3
	c0.6-4.2,2.2-7,4.1-8.6c-14.2-1.6-29.1-7.1-29.1-31.6c-0.1-6.4,2.3-12.5,6.6-17.2c-0.6-1.6-2.9-8.2,0.6-17c0,0,5.4-1.7,17.6,6.6
	c10.5-2.9,21.5-2.9,32,0c12.2-8.3,17.6-6.6,17.6-6.6c3.5,8.8,1.3,15.4,0.6,17c4.3,4.7,6.7,10.8,6.6,17.2c0,24.6-15,30-29.2,31.6
	c2.3,2,4.3,5.8,4.3,11.8c0,8.6-0.1,15.4-0.1,17.6c0,1.7,1.2,3.7,4.4,3c33.5-11.3,51.5-47.6,40.2-81.1C115.9,19.1,91.5,1.6,64,1.6z"
	/>
</svg>
