<?xml version="1.0" encoding="utf-8"?>
<!-- Generator: Adobe Illustrator 24.0.2, SVG Export Plug-In . SVG Version: 6.00 Build 0)  -->
<svg version="1.1" id="e88f74fc-0cb0-4a76-a91d-208cfe4c7dcf"
	 xmlns="http://www.w3.org/2000/svg" xmlns:xlink="http://www.w3.org/1999/xlink" x="0px" y="0px" viewBox="0 0 128 128"
	 style="enable-background:new 0 0 128 128;" xml:space="preserve">
<style type="text/css">
	.st0{fill:#C61300;}
</style>
<g>
	<title>social-icons</title>
	<path class="st0" d="M0,29.4c1.2,0.8,1.9,1.2,2.5,1.6C19.3,42.9,36.1,54.9,53,66.8c3,2.1,5.7,4.5,9.6,4.8c3.6,0.3,7.1-0.8,10-2.9
		c18.1-12.9,36.2-25.8,54.3-38.7c0.3-0.1,0.6-0.2,0.9-0.3c0.1,1,0.2,1.9,0.2,2.8c0,22.2,0,44.3,0,66.5c0,7.3-3.5,10.8-10.9,10.8
		c-35.4,0-70.7,0-106.1,0c-7.5,0-11-3.5-11-11c0-22.1,0-44.1,0-66.2L0,29.4z"/>
	<path class="st0" d="M5.9,19.7c2.7-1.5,113.4-1.5,116.4,0.1c-4.7,3.3-9.2,6.5-13.8,9.7c-12.3,8.6-24.5,17.2-36.8,25.9
		c-1.5,1-2.8,2.2-4.2,3.3c-1.9,1.6-4.7,1.7-6.7,0.2C42.5,46,24.3,33.1,6.1,20.2C6,20.1,5.9,19.9,5.9,19.7z"/>
</g>
</svg>
