<?xml version="1.0" encoding="utf-8"?>
<!-- Generator: Adobe Illustrator 24.0.2, SVG Export Plug-In . SVG Version: 6.00 Build 0)  -->
<svg version="1.1" id="e88f74fc-0cb0-4a76-a91d-208cfe4c7dcf"
	 xmlns="http://www.w3.org/2000/svg" xmlns:xlink="http://www.w3.org/1999/xlink" x="0px" y="0px" viewBox="0 0 128 128"
	 style="enable-background:new 0 0 128 128;" xml:space="preserve">
<style type="text/css">
	.st0{fill:#E7AE00;}
	.st1{fill:#FFFFFF;}
</style>
<path class="st0" d="M0,65.6c0-1.1,0-2.2,0-3.3c0.1-0.3,0.1-0.5,0.1-0.8c0.1-1.3,0.2-2.5,0.3-3.8c0.4-4.5,1.3-8.9,2.7-13.3
	c2.9-9,7.4-17,13.9-23.8C30.4,6.4,46.9-0.5,66.4,0c3.9,0.1,7.8,0.6,11.6,1.5c8.1,1.8,15.5,5,22.2,9.7c10.2,7.1,17.8,16.4,22.7,27.9
	c3,7,4.6,14.3,4.9,22c0.2,4.1,0,8.2-0.6,12.2c-0.7,4.8-1.9,9.6-3.7,14.1c-3.8,9.7-9.6,17.9-17.4,24.8c-10.6,9.2-22.9,14.4-36.9,15.6
	c-4.2,0.4-8.3,0.3-12.5-0.2c-4.1-0.5-8.2-1.3-12.1-2.6c-11.3-3.6-20.9-9.9-28.6-18.8C6.5,95.3,1.3,82.7,0.3,68.3
	C0.2,67.4,0.1,66.5,0,65.6z M82.5,98.3c1.8,0,3.5-0.4,4.8-1.7c3.3-3.3,6.6-6.6,10-9.9c0.6-0.6,1-1.4,1.1-2.3c0-1.5-0.8-2.5-2-3.2
	c-4.5-2.7-9-5.3-13.5-8c-1.9-1.1-4.2-0.8-5.7,0.7c-1.3,1.3-2.5,2.5-3.7,3.8c-0.4,0.4-0.8,0.6-1.5,0.5c-1.6-0.3-3-1-4.3-1.9
	c-4.7-2.8-8.5-6.7-12.1-10.8c-1.3-1.5-2.4-3.1-3.5-4.7c-1-1.4-1.7-3-2.2-4.7c-0.2-0.7,0-1.2,0.5-1.6c1-1,1.9-1.9,2.9-2.9
	c1.7-1.6,2.3-3.8,1-6.1c-2.5-4.5-4.9-9.2-7.3-13.8c-0.5-0.9-1.2-1.7-2.2-2c-1.4-0.4-2.5,0.1-3.5,1c-3,3-6,6.1-9.1,9.1
	c-1.9,1.8-2.5,4-2.4,6.5c0.1,2.6,0.7,5.2,1.5,7.6c1.6,5.2,4.3,9.9,7.3,14.4c3.4,5,7.5,9.3,11.8,13.4c6.2,6,13.2,10.9,21.2,14.2
	C75,97.4,78.7,98.2,82.5,98.3z"/>
<path class="st1" d="M82.5,98.3c-3.8-0.1-7.5-0.9-11-2.4c-8-3.3-15-8.2-21.2-14.2c-4.3-4.2-8.4-8.5-11.8-13.4
	c-3.1-4.5-5.7-9.2-7.3-14.4c-0.8-2.5-1.4-5-1.5-7.6c-0.1-2.5,0.5-4.6,2.4-6.5c3.1-3,6.1-6,9.1-9.1c1-1,2.1-1.5,3.5-1
	c1,0.3,1.7,1.1,2.2,2c2.4,4.6,4.8,9.2,7.3,13.8c1.3,2.4,0.7,4.6-1,6.1c-1,0.9-1.9,1.9-2.9,2.9c-0.5,0.5-0.7,1-0.5,1.6
	c0.4,1.7,1.2,3.3,2.2,4.7c1.1,1.6,2.2,3.3,3.5,4.7c3.6,4.1,7.4,7.9,12.1,10.8c1.4,0.8,2.7,1.6,4.3,1.9c0.6,0.1,1.1-0.1,1.5-0.5
	c1.2-1.3,2.5-2.5,3.7-3.8c1.6-1.6,3.8-1.9,5.7-0.7c4.5,2.7,9,5.3,13.5,8c1.2,0.7,2.1,1.7,2,3.2c0,0.9-0.4,1.7-1.1,2.3
	c-3.3,3.3-6.6,6.6-10,9.9C86,97.9,84.3,98.3,82.5,98.3z"/>
</svg>
