<?xml version="1.0" encoding="utf-8"?>
<!-- Generator: Adobe Illustrator 17.0.0, SVG Export Plug-In . SVG Version: 6.00 Build 0)  -->
<!DOCTYPE svg PUBLIC "-//W3C//DTD SVG 1.1//EN" "http://www.w3.org/Graphics/SVG/1.1/DTD/svg11.dtd">
<svg version="1.1" id="Capa_1" xmlns="http://www.w3.org/2000/svg" xmlns:xlink="http://www.w3.org/1999/xlink" x="0px" y="0px"
	 width="120px" height="120px" viewBox="0 0 120 120" enable-background="new 0 0 120 120" xml:space="preserve">
<g>
	<circle fill="#2F1F5A" cx="60" cy="60" r="54"/>
</g>
<circle fill="#2F1F5A" cx="60" cy="60" r="50"/>
<polygon fill="#2F1F5A" points="33.016,48.889 33.016,37.313 21.44,48.889 "/>
<polygon fill="#2F1F5A" points="34.603,37.313 34.603,66.814 49.354,52.063 "/>
<polygon fill="#2F1F5A" points="51.27,85.068 96.179,40.159 63.503,40.159 34.932,68.717 "/>
<polygon fill="#2F1F5A" points="63.174,96.973 63.174,75.408 52.392,86.19 "/>
<path fill="#F6F6F6" d="M98.828,39.061c-0.122-0.296-0.412-0.49-0.733-0.49h-34.92c-0.211,0-0.412,0.084-0.561,0.233l-12.14,12.135
	L34.371,34.836c-0.009-0.009-0.02-0.013-0.029-0.021c-0.03-0.027-0.064-0.049-0.098-0.072c-0.032-0.021-0.063-0.042-0.097-0.058
	c-0.012-0.006-0.021-0.015-0.033-0.02c-0.025-0.01-0.051-0.011-0.077-0.019c-0.037-0.011-0.073-0.022-0.111-0.028
	c-0.041-0.006-0.08-0.006-0.121-0.006c-0.036,0-0.071,0-0.107,0.005c-0.042,0.006-0.081,0.017-0.121,0.03
	c-0.024,0.007-0.048,0.008-0.071,0.017c-0.012,0.005-0.02,0.014-0.032,0.019c-0.036,0.017-0.068,0.039-0.101,0.061
	s-0.066,0.044-0.096,0.071c-0.009,0.008-0.02,0.013-0.029,0.022L18.963,49.121c-0.227,0.227-0.295,0.568-0.172,0.865
	c0.122,0.296,0.412,0.49,0.733,0.49h13.492V68.73c0,0.098,0.023,0.191,0.057,0.28c0.002,0.005,0.005,0.01,0.007,0.015
	c0.052,0.13,0.134,0.244,0.245,0.331l17.383,17.397L63.407,99.45c0.152,0.152,0.355,0.233,0.561,0.233
	c0.102,0,0.205-0.019,0.304-0.06c0.297-0.122,0.49-0.412,0.49-0.733V73.821l33.895-33.894
	C98.883,39.699,98.952,39.358,98.828,39.061z M33.016,48.889H21.44l11.576-11.576V48.889z M34.603,49.682V37.313l14.748,14.748
	L34.603,66.802V49.682z M63.174,96.973L52.392,86.19l10.782-10.782C63.174,75.408,63.174,96.973,63.174,96.973z M63.407,72.931
	L51.27,85.068L34.938,68.724l16.099-16.099c0.005-0.005,0.006-0.012,0.011-0.017l12.455-12.449h32.676L63.407,72.931z"/>
<path fill="#F6F6F6" d="M49.208,75.106c0.861,0.051,1.738-0.236,2.379-0.877c0.853-0.852,0.93-1.839,0.271-2.497
	c-0.693-0.692-1.367-0.473-2.161-0.169l-1.223,0.465c-0.701,0.278-1.688,0.573-2.515-0.253c-0.802-0.802-0.675-2.059,0.253-2.987
	c0.667-0.667,1.511-0.903,2.211-0.877l0.042,0.48c-0.675-0.017-1.343,0.195-1.899,0.751c-0.733,0.734-0.843,1.62-0.235,2.227
	c0.642,0.642,1.442,0.329,2.033,0.11l1.216-0.473c0.902-0.346,1.796-0.549,2.649,0.304c0.852,0.852,0.793,2.193-0.287,3.273
	c-0.811,0.81-1.789,1.097-2.718,1.047L49.208,75.106z"/>
<path fill="#F6F6F6" d="M51.104,67.759l-0.633,0.633l-0.286-0.286l0.607-0.676l-1.122-1.222l0.32-0.321l1.173,1.172l1.173-1.173
	l0.32,0.32l-1.173,1.173l2.642,2.642c0.515,0.515,0.987,0.734,1.544,0.177c0.151-0.151,0.304-0.421,0.379-0.632l0.406,0.202
	c-0.152,0.32-0.338,0.641-0.507,0.81c-0.784,0.785-1.511,0.515-2.236-0.211L51.104,67.759z"/>
<path fill="#F6F6F6" d="M53.187,65.036l0.371-0.372l2.549,2.548c0.859,0.86,1.535,0.997,2.185,0.347
	c0.481-0.481,0.583-1.089,0.48-2.136l-2.986-2.986l0.372-0.371l4.05,4.05l-0.312,0.312l-0.717-0.631l-0.018,0.017
	c0.067,0.861-0.042,1.594-0.599,2.151c-0.835,0.835-1.73,0.717-2.776-0.329L53.187,65.036z"/>
<path fill="#F6F6F6" d="M59.065,58.954c0.489-0.489,1.004-0.633,1.721-0.725l-0.759-0.726l-1.671-1.671l0.371-0.371l6.066,6.066
	l-0.32,0.32l-0.558-0.489l-0.025,0.025c0,0.659-0.151,1.401-0.69,1.941c-1.021,1.021-2.431,0.928-3.798-0.438
	C58.095,61.579,58.103,59.916,59.065,58.954z M62.921,62.946c0.447-0.447,0.607-1.08,0.607-1.94L61.124,58.6
	c-0.811,0.052-1.309,0.262-1.705,0.659c-0.81,0.81-0.641,2.21,0.38,3.231C60.87,63.561,62.061,63.806,62.921,62.946z"/>
<path fill="#F6F6F6" d="M60.843,54.764c-0.211-0.211-0.186-0.49,0-0.675s0.465-0.21,0.676,0c0.193,0.194,0.177,0.481-0.009,0.667
	S61.036,54.958,60.843,54.764z M62.294,55.928l0.371-0.372l4.051,4.05l-0.372,0.372L62.294,55.928z"/>
<path fill="#F6F6F6" d="M65.601,52.419c0.979-0.979,2.6-1.045,3.957,0.313c1.342,1.342,1.274,2.961,0.296,3.94
	c-0.971,0.97-2.591,1.039-3.933-0.303C64.563,55.01,64.63,53.389,65.601,52.419z M69.524,56.343c0.818-0.818,0.709-2.16-0.355-3.223
	c-1.07-1.072-2.421-1.189-3.239-0.371s-0.691,2.159,0.38,3.231C67.373,57.043,68.706,57.161,69.524,56.343z"/>
</svg>
