<?xml version="1.0" encoding="utf-8"?>
<!-- Generator: Adobe Illustrator 17.0.0, SVG Export Plug-In . SVG Version: 6.00 Build 0)  -->
<!DOCTYPE svg PUBLIC "-//W3C//DTD SVG 1.1//EN" "http://www.w3.org/Graphics/SVG/1.1/DTD/svg11.dtd">
<svg version="1.1" id="Capa_1" xmlns="http://www.w3.org/2000/svg" xmlns:xlink="http://www.w3.org/1999/xlink" x="0px" y="0px"
	 width="608px" height="156px" viewBox="0 0 608 156" enable-background="new 0 0 608 156" xml:space="preserve">
<rect fill="none" width="608" height="156"/>
<g>
	<path fill="#FFFFFF" d="M102.606,127.594h4.111c5.455,0,8.034,3.439,8.034,8.787c0,5.374-2.579,8.921-8.008,8.921h-4.138
		L102.606,127.594L102.606,127.594z M106.583,144.254c4.811,0,6.879-3.251,6.879-7.873c0-4.595-2.068-7.739-6.879-7.739h-2.74
		v15.612H106.583z"/>
	<path fill="#FFFFFF" d="M118.244,128.239c0-0.672,0.483-1.075,1.074-1.075c0.592,0,1.075,0.403,1.075,1.075
		c0,0.618-0.483,1.048-1.075,1.048C118.728,129.287,118.244,128.857,118.244,128.239z M118.7,132.404h1.183v12.898H118.7V132.404z"
		/>
	<path fill="#FFFFFF" d="M123.94,142.964c1.102,0.914,2.257,1.639,4.111,1.639c2.015,0,3.063-1.182,3.063-2.553
		c0-1.612-1.666-2.311-3.145-2.848c-1.961-0.699-4.111-1.478-4.111-3.681c0-1.881,1.479-3.439,4.165-3.439
		c1.371,0,2.741,0.564,3.682,1.343l-0.645,0.833c-0.86-0.645-1.773-1.155-3.091-1.155c-1.988,0-2.901,1.155-2.901,2.338
		c0,1.478,1.504,2.042,3.036,2.606c2.016,0.752,4.219,1.424,4.219,3.95c0,1.935-1.559,3.627-4.354,3.627
		c-1.907,0-3.573-0.806-4.729-1.773L123.94,142.964z"/>
	<path fill="#FFFFFF" d="M140.277,132.082c3.062,0,4.943,2.176,4.943,5.965c0,0.322,0,0.645-0.054,0.967h-9.297
		c0.054,3.251,1.962,5.589,4.863,5.589c1.397,0,2.499-0.457,3.467-1.155l0.483,0.914c-1.021,0.618-2.177,1.263-4.058,1.263
		c-3.305,0-5.965-2.526-5.965-6.744C134.661,134.661,137.401,132.082,140.277,132.082z M144.093,138.101
		c0-3.305-1.479-4.998-3.789-4.998c-2.203,0-4.165,1.908-4.434,4.998H144.093z"/>
	<path fill="#FFFFFF" d="M148.713,132.404h1.021l0.107,1.988h0.081c1.316-1.316,2.66-2.311,4.434-2.311
		c2.66,0,3.896,1.612,3.896,4.944v8.276h-1.182v-8.115c0-2.741-0.86-4.031-2.956-4.031c-1.531,0-2.633,0.806-4.219,2.418v9.727
		h-1.183v-12.896H148.713z M152.368,127.298c1.289,0,2.042,1.478,2.982,1.478c0.564,0,0.887-0.564,0.994-1.478h0.806
		c-0.08,1.128-0.563,2.392-1.827,2.392c-1.316,0-2.015-1.478-2.982-1.478c-0.591,0-0.913,0.538-1.021,1.478h-0.806
		C150.595,128.534,151.078,127.298,152.368,127.298z"/>
	<path fill="#FFFFFF" d="M167.71,132.082c3.116,0,5.804,2.472,5.804,6.798c0,4.272-2.688,6.744-5.804,6.744
		c-3.091,0-5.777-2.472-5.777-6.744C161.933,134.554,164.619,132.082,167.71,132.082z M167.71,144.576
		c2.606,0,4.567-2.311,4.567-5.696c0-3.413-1.961-5.75-4.567-5.75s-4.541,2.338-4.541,5.75
		C163.169,142.265,165.104,144.576,167.71,144.576z"/>
	<path fill="#FFFFFF" d="M187.271,132.082c3.062,0,4.943,2.176,4.943,5.965c0,0.322,0,0.645-0.054,0.967h-9.297
		c0.054,3.251,1.962,5.589,4.863,5.589c1.397,0,2.499-0.457,3.467-1.155l0.483,0.914c-1.021,0.618-2.177,1.263-4.058,1.263
		c-3.305,0-5.965-2.526-5.965-6.744C181.654,134.661,184.395,132.082,187.271,132.082z M191.086,138.101
		c0-3.305-1.479-4.998-3.789-4.998c-2.203,0-4.165,1.908-4.434,4.998H191.086z"/>
	<path fill="#FFFFFF" d="M194.793,142.964c1.102,0.914,2.257,1.639,4.111,1.639c2.015,0,3.063-1.182,3.063-2.553
		c0-1.612-1.666-2.311-3.145-2.848c-1.961-0.699-4.111-1.478-4.111-3.681c0-1.881,1.479-3.439,4.165-3.439
		c1.371,0,2.741,0.564,3.682,1.343l-0.645,0.833c-0.86-0.645-1.773-1.155-3.091-1.155c-1.988,0-2.901,1.155-2.901,2.338
		c0,1.478,1.504,2.042,3.036,2.606c2.015,0.752,4.219,1.424,4.219,3.95c0,1.935-1.559,3.627-4.354,3.627
		c-1.907,0-3.573-0.806-4.729-1.773L194.793,142.964z"/>
	<path fill="#FFFFFF" d="M206.884,133.425h-2.016v-0.914l2.043-0.107l0.161-3.735h1.021v3.735h3.735v1.021h-3.735v8.411
		c0,1.639,0.403,2.741,2.177,2.741c0.483,0,1.155-0.188,1.612-0.403l0.322,0.967c-0.752,0.269-1.559,0.483-2.096,0.483
		c-2.499,0-3.225-1.585-3.225-3.896v-8.303H206.884z"/>
	<path fill="#FFFFFF" d="M214.971,132.404h1.021l0.107,2.392h0.081c0.859-1.585,2.122-2.714,3.654-2.714
		c0.483,0,0.859,0.054,1.29,0.269l-0.27,1.075c-0.43-0.161-0.672-0.215-1.182-0.215c-1.156,0-2.526,0.887-3.521,3.305v8.787h-1.183
		v-12.899H214.971z"/>
	<path fill="#FFFFFF" d="M230.475,137.214c0.054-1.962-0.51-4.084-3.036-4.084c-1.746,0-3.251,0.86-4.111,1.505l-0.537-0.887
		c0.913-0.645,2.687-1.666,4.783-1.666c3.062,0,4.084,2.203,4.084,4.971v8.25h-0.994l-0.135-1.666h-0.054
		c-1.316,1.048-2.875,1.988-4.567,1.988c-2.042,0-3.762-1.102-3.762-3.547C222.146,139.229,224.752,137.858,230.475,137.214z
		 M226.095,144.603c1.479,0,2.795-0.726,4.38-2.096v-4.38c-5.293,0.618-7.094,1.854-7.094,3.896
		C223.381,143.877,224.617,144.603,226.095,144.603z"/>
	<path fill="#FFFFFF" d="M236.574,133.425h-2.016v-0.914l2.043-0.107l0.161-3.735h1.021v3.735h3.735v1.021h-3.735v8.411
		c0,1.639,0.403,2.741,2.177,2.741c0.483,0,1.155-0.188,1.612-0.403l0.322,0.967c-0.752,0.269-1.559,0.483-2.096,0.483
		c-2.499,0-3.225-1.585-3.225-3.896v-8.303H236.574z"/>
	<path fill="#FFFFFF" d="M248.935,132.082c3.062,0,4.943,2.176,4.943,5.965c0,0.322,0,0.645-0.054,0.967h-9.297
		c0.054,3.251,1.962,5.589,4.863,5.589c1.397,0,2.499-0.457,3.467-1.155l0.483,0.914c-1.021,0.618-2.177,1.263-4.058,1.263
		c-3.305,0-5.965-2.526-5.965-6.744C243.318,134.661,246.059,132.082,248.935,132.082z M252.75,138.101
		c0-3.305-1.479-4.998-3.789-4.998c-2.203,0-4.165,1.908-4.434,4.998H252.75z M248.45,129.932h-0.994l2.445-3.654h1.424
		L248.45,129.932z"/>
	<path fill="#FFFFFF" d="M257.935,144.818v-0.107c-0.645-0.376-1.128-1.075-1.128-2.069c0-1.155,0.833-1.961,1.397-2.365v-0.107
		c-0.807-0.699-1.612-1.988-1.612-3.547c0-2.66,2.015-4.541,4.541-4.541c0.698,0,1.29,0.161,1.692,0.322h4.38v0.994h-3.009
		c0.833,0.726,1.424,1.881,1.424,3.251c0,2.633-1.962,4.541-4.487,4.541c-0.726,0-1.559-0.188-2.149-0.537
		c-0.564,0.457-1.049,0.994-1.049,1.854c0,0.94,0.538,1.693,2.473,1.693h2.768c2.902,0,4.245,0.914,4.245,2.956
		c0,2.23-2.391,4.353-6.1,4.353c-3.251,0-5.293-1.397-5.293-3.574C256.027,146.807,256.753,145.678,257.935,144.818z
		 M261.455,150.542c2.902,0,4.756-1.639,4.756-3.251c0-1.424-1.048-1.961-2.982-1.961h-2.768c-0.269,0-0.94-0.054-1.612-0.215
		c-1.183,0.806-1.693,1.8-1.693,2.714C257.155,149.44,258.714,150.542,261.455,150.542z M264.465,136.623
		c0-2.177-1.505-3.574-3.332-3.574s-3.359,1.37-3.359,3.574c0,2.176,1.559,3.627,3.359,3.627
		C262.906,140.25,264.465,138.799,264.465,136.623z"/>
	<path fill="#FFFFFF" d="M269.73,128.239c0-0.672,0.483-1.075,1.074-1.075c0.592,0,1.075,0.403,1.075,1.075
		c0,0.618-0.483,1.048-1.075,1.048C270.214,129.287,269.73,128.857,269.73,128.239z M270.187,132.404h1.183v12.898h-1.183V132.404z"
		/>
	<path fill="#FFFFFF" d="M281.15,132.082c1.773,0,2.929,0.779,3.788,1.585l-0.698,0.833c-0.833-0.779-1.801-1.37-3.063-1.37
		c-2.633,0-4.675,2.338-4.675,5.75c0,3.385,1.854,5.696,4.675,5.696c1.371,0,2.553-0.672,3.439-1.478l0.618,0.806
		c-1.102,0.995-2.472,1.72-4.111,1.72c-3.332,0-5.857-2.472-5.857-6.744C275.266,134.554,278.006,132.082,281.15,132.082z"/>
	<path fill="#FFFFFF" d="M292.649,132.082c3.116,0,5.804,2.472,5.804,6.798c0,4.272-2.688,6.744-5.804,6.744
		c-3.091,0-5.777-2.472-5.777-6.744C286.872,134.554,289.559,132.082,292.649,132.082z M292.649,144.576
		c2.606,0,4.567-2.311,4.567-5.696c0-3.413-1.961-5.75-4.567-5.75s-4.541,2.338-4.541,5.75
		C288.108,142.265,290.043,144.576,292.649,144.576z"/>
	<path fill="#FFFFFF" d="M300.871,148.661c1.209-0.645,2.042-1.773,2.068-3.251c-0.107,0.027-0.215,0.027-0.322,0.027
		c-0.618,0-1.128-0.403-1.128-1.128s0.563-1.128,1.155-1.128c0.806,0,1.37,0.725,1.37,1.908c0,1.961-1.155,3.52-2.768,4.38
		L300.871,148.661z"/>
	<path fill="#FFFFFF" d="M318.095,132.082c1.773,0,2.929,0.779,3.788,1.585l-0.698,0.833c-0.833-0.779-1.801-1.37-3.063-1.37
		c-2.633,0-4.675,2.338-4.675,5.75c0,3.385,1.854,5.696,4.675,5.696c1.371,0,2.553-0.672,3.439-1.478l0.618,0.806
		c-1.102,0.995-2.472,1.72-4.111,1.72c-3.332,0-5.857-2.472-5.857-6.744C312.21,134.554,314.95,132.082,318.095,132.082z"/>
	<path fill="#FFFFFF" d="M325.348,132.404h1.021l0.107,2.392h0.081c0.859-1.585,2.122-2.714,3.654-2.714
		c0.483,0,0.859,0.054,1.29,0.269l-0.27,1.075c-0.43-0.161-0.672-0.215-1.182-0.215c-1.156,0-2.526,0.887-3.521,3.305v8.787h-1.183
		v-12.899H325.348z"/>
	<path fill="#FFFFFF" d="M338.139,132.082c3.062,0,4.943,2.176,4.943,5.965c0,0.322,0,0.645-0.054,0.967h-9.297
		c0.054,3.251,1.962,5.589,4.863,5.589c1.397,0,2.499-0.457,3.467-1.155l0.483,0.914c-1.021,0.618-2.177,1.263-4.058,1.263
		c-3.305,0-5.965-2.526-5.965-6.744C332.522,134.661,335.263,132.082,338.139,132.082z M341.954,138.101
		c0-3.305-1.479-4.998-3.789-4.998c-2.203,0-4.165,1.908-4.434,4.998H341.954z"/>
	<path fill="#FFFFFF" d="M353.775,137.214c0.054-1.962-0.51-4.084-3.036-4.084c-1.746,0-3.251,0.86-4.111,1.505l-0.537-0.887
		c0.913-0.645,2.687-1.666,4.783-1.666c3.062,0,4.084,2.203,4.084,4.971v8.25h-0.994l-0.135-1.666h-0.054
		c-1.316,1.048-2.875,1.988-4.567,1.988c-2.042,0-3.762-1.102-3.762-3.547C345.446,139.229,348.053,137.858,353.775,137.214z
		 M349.396,144.603c1.479,0,2.795-0.726,4.38-2.096v-4.38c-5.293,0.618-7.094,1.854-7.094,3.896
		C346.682,143.877,347.918,144.603,349.396,144.603z"/>
	<path fill="#FFFFFF" d="M359.874,133.425h-2.016v-0.914l2.043-0.107l0.161-3.735h1.021v3.735h3.735v1.021h-3.735v8.411
		c0,1.639,0.403,2.741,2.177,2.741c0.483,0,1.155-0.188,1.612-0.403l0.322,0.967c-0.752,0.269-1.559,0.483-2.096,0.483
		c-2.499,0-3.225-1.585-3.225-3.896v-8.303H359.874z"/>
	<path fill="#FFFFFF" d="M367.506,128.239c0-0.672,0.483-1.075,1.074-1.075c0.592,0,1.075,0.403,1.075,1.075
		c0,0.618-0.483,1.048-1.075,1.048C367.989,129.287,367.506,128.857,367.506,128.239z M367.962,132.404h1.183v12.898h-1.183V132.404
		z"/>
	<path fill="#FFFFFF" d="M371.965,132.404h1.29l2.902,8.088c0.402,1.236,0.887,2.526,1.289,3.708h0.107
		c0.431-1.183,0.887-2.472,1.317-3.708l2.901-8.088h1.21l-4.783,12.898h-1.397L371.965,132.404z"/>
	<path fill="#FFFFFF" d="M390.479,132.082c3.116,0,5.804,2.472,5.804,6.798c0,4.272-2.688,6.744-5.804,6.744
		c-3.091,0-5.777-2.472-5.777-6.744C384.701,134.554,387.388,132.082,390.479,132.082z M390.479,144.576
		c2.606,0,4.567-2.311,4.567-5.696c0-3.413-1.961-5.75-4.567-5.75s-4.541,2.338-4.541,5.75
		C385.938,142.265,387.872,144.576,390.479,144.576z"/>
	<path fill="#FFFFFF" d="M398.7,148.661c1.209-0.645,2.042-1.773,2.068-3.251c-0.107,0.027-0.215,0.027-0.322,0.027
		c-0.618,0-1.128-0.403-1.128-1.128s0.563-1.128,1.155-1.128c0.806,0,1.37,0.725,1.37,1.908c0,1.961-1.155,3.52-2.768,4.38
		L398.7,148.661z"/>
	<path fill="#FFFFFF" d="M410.656,128.239c0-0.672,0.483-1.075,1.074-1.075c0.592,0,1.075,0.403,1.075,1.075
		c0,0.618-0.483,1.048-1.075,1.048C411.14,129.287,410.656,128.857,410.656,128.239z M411.112,132.404h1.183v12.898h-1.183V132.404z
		"/>
	<path fill="#FFFFFF" d="M417.265,132.404h1.021l0.107,1.988h0.081c1.316-1.316,2.66-2.311,4.434-2.311
		c2.66,0,3.896,1.612,3.896,4.944v8.276h-1.182v-8.115c0-2.741-0.86-4.031-2.956-4.031c-1.531,0-2.633,0.806-4.219,2.418v9.727
		h-1.183v-12.896H417.265z"/>
	<path fill="#FFFFFF" d="M436.209,132.082c1.559,0,2.606,0.591,3.896,1.585l-0.054-2.364v-5.32h1.183v19.32h-1.021l-0.107-1.666
		h-0.08c-1.048,1.048-2.473,1.988-4.192,1.988c-3.251,0-5.347-2.391-5.347-6.744C430.485,134.715,433.146,132.082,436.209,132.082z
		 M435.994,144.576c1.424,0,2.687-0.752,4.057-2.123v-7.658c-1.37-1.209-2.499-1.666-3.762-1.666c-2.579,0-4.541,2.499-4.541,5.75
		C431.748,142.292,433.253,144.576,435.994,144.576z"/>
	<path fill="#FFFFFF" d="M445.988,132.404h1.183v8.115c0,2.741,0.859,4.031,2.929,4.031c1.531,0,2.66-0.806,4.165-2.633v-9.512
		h1.182v12.898h-0.994l-0.134-2.149h-0.054c-1.264,1.478-2.606,2.472-4.38,2.472c-2.66,0-3.896-1.612-3.896-4.944v-8.278H445.988z"
		/>
	<path fill="#FFFFFF" d="M459.477,142.964c1.102,0.914,2.257,1.639,4.111,1.639c2.015,0,3.063-1.182,3.063-2.553
		c0-1.612-1.666-2.311-3.145-2.848c-1.961-0.699-4.111-1.478-4.111-3.681c0-1.881,1.479-3.439,4.165-3.439
		c1.371,0,2.741,0.564,3.682,1.343l-0.645,0.833c-0.86-0.645-1.773-1.155-3.091-1.155c-1.988,0-2.901,1.155-2.901,2.338
		c0,1.478,1.504,2.042,3.036,2.606c2.015,0.752,4.219,1.424,4.219,3.95c0,1.935-1.559,3.627-4.354,3.627
		c-1.907,0-3.573-0.806-4.729-1.773L459.477,142.964z"/>
	<path fill="#FFFFFF" d="M471.567,133.425h-2.016v-0.914l2.043-0.107l0.161-3.735h1.021v3.735h3.735v1.021h-3.735v8.411
		c0,1.639,0.403,2.741,2.177,2.741c0.483,0,1.155-0.188,1.612-0.403l0.322,0.967c-0.752,0.269-1.559,0.483-2.096,0.483
		c-2.499,0-3.225-1.585-3.225-3.896v-8.303H471.567z"/>
	<path fill="#FFFFFF" d="M479.655,132.404h1.021l0.107,2.392h0.081c0.859-1.585,2.122-2.714,3.654-2.714
		c0.483,0,0.859,0.054,1.29,0.269l-0.27,1.075c-0.43-0.161-0.672-0.215-1.182-0.215c-1.155,0-2.526,0.887-3.521,3.305v8.787h-1.183
		v-12.899H479.655z"/>
	<path fill="#FFFFFF" d="M487.716,128.239c0-0.672,0.483-1.075,1.074-1.075c0.592,0,1.075,0.403,1.075,1.075
		c0,0.618-0.483,1.048-1.075,1.048C488.199,129.287,487.716,128.857,487.716,128.239z M488.172,132.404h1.183v12.898h-1.183V132.404
		z"/>
	<path fill="#FFFFFF" d="M501.93,137.214c0.054-1.962-0.51-4.084-3.036-4.084c-1.746,0-3.251,0.86-4.111,1.505l-0.537-0.887
		c0.913-0.645,2.687-1.666,4.783-1.666c3.062,0,4.084,2.203,4.084,4.971v8.25h-0.994l-0.135-1.666h-0.054
		c-1.316,1.048-2.875,1.988-4.567,1.988c-2.042,0-3.762-1.102-3.762-3.547C493.601,139.229,496.207,137.858,501.93,137.214z
		 M497.55,144.603c1.479,0,2.795-0.726,4.38-2.096v-4.38c-5.293,0.618-7.094,1.854-7.094,3.896
		C494.836,143.877,496.072,144.603,497.55,144.603z"/>
	<path fill="#FFFFFF" d="M507.732,125.982h1.183v17.761c0,0.564,0.242,0.833,0.564,0.833c0.107,0,0.215,0,0.483-0.054l0.215,0.967
		c-0.241,0.081-0.483,0.134-0.859,0.134c-1.048,0-1.586-0.645-1.586-2.042V125.982z"/>
	<path fill="#FFFFFF" d="M514.585,143.179c0.591,0,1.128,0.457,1.128,1.236c0,0.752-0.537,1.209-1.128,1.209
		c-0.592,0-1.155-0.457-1.155-1.209C513.43,143.636,513.993,143.179,514.585,143.179z"/>
</g>
<path fill="#FFFFFF" d="M134.9,10.546c-0.202-0.488-0.679-0.589-1.207-0.589H76.188c-0.347,0-0.679-0.08-0.924,0.165L55.273,29.996
	L28.756,3.424c-0.014-0.014-0.033-0.049-0.048-0.063c-0.049-0.045-0.105-0.095-0.161-0.132c-0.053-0.035-0.104-0.077-0.16-0.103
	c-0.02-0.009-0.035-0.028-0.055-0.036c-0.041-0.017-0.085-0.021-0.127-0.033c-0.061-0.018-0.12-0.037-0.182-0.046
	C27.957,3.001,27.891,3,27.824,3c-0.059,0-0.117,0-0.176,0.009c-0.069,0.01-0.133,0.029-0.2,0.049
	C27.41,3.07,27.37,3.071,27.332,3.087c-0.019,0.008-0.034,0.022-0.052,0.031c-0.059,0.027-0.111,0.063-0.166,0.1
	s-0.109,0.073-0.158,0.117c-0.015,0.014-0.034,0.021-0.048,0.036L3.383,26.894c-0.374,0.374-0.486,1.154-0.283,1.642
	c0.202,0.488,0.679,1.025,1.207,1.025h22.218v29.624c0,0.162,0.038,0.315,0.094,0.46c0.003,0.008,0.008,0.016,0.011,0.024
	c0.086,0.214,0.221,0.403,0.404,0.545L55.66,88.861l20.911,20.911c0.25,0.25,0.585,0.383,0.924,0.383c0.168,0,0.338-0.032,0.5-0.1
	c0.489-0.202,0.807-0.679,0.807-1.207v-41.28l55.815-55.706C134.991,11.488,135.103,11.035,134.9,10.546z M26.525,26.947H7.462
	L26.525,7.449V26.947z M29.139,27.818V7.449l24.286,24.286L29.139,56.009V27.818z M76.188,105.693L58.432,87.937l17.756-17.756
	V105.693z M76.571,66.32L56.584,86.198l-26.893-26.97L56.202,32.69c0.008-0.008,0.011,0.185,0.019,0.176L76.73,12.57h53.809
	L76.571,66.32z"/>
<g>
	<path fill="#FFFFFF" d="M53.188,69.686c1.417,0.083,2.861-0.388,3.917-1.444c1.402-1.402,1.527-3.027,0.443-4.111
		c-1.139-1.139-2.25-0.777-3.555-0.277l-2.014,0.764c-1.152,0.459-2.776,0.945-4.138-0.417c-1.318-1.318-1.11-3.388,0.417-4.915
		c1.097-1.097,2.485-1.486,3.638-1.445l0.069,0.792c-1.11-0.028-2.208,0.319-3.124,1.236c-1.208,1.208-1.389,2.666-0.389,3.666
		c1.055,1.055,2.374,0.542,3.347,0.181l2-0.777c1.485-0.57,2.957-0.903,4.359,0.5s1.306,3.61-0.472,5.388
		c-1.333,1.333-2.944,1.805-4.472,1.722L53.188,69.686z"/>
	<path fill="#FFFFFF" d="M56.313,57.591l-1.042,1.042L54.8,58.161l1-1.111l-1.848-2.014l0.528-0.528l1.931,1.931l1.93-1.93
		l0.527,0.527l-1.93,1.93l4.347,4.347c0.848,0.848,1.624,1.208,2.541,0.292c0.25-0.25,0.5-0.694,0.625-1.042l0.666,0.333
		c-0.25,0.528-0.555,1.056-0.833,1.333c-1.291,1.291-2.485,0.847-3.68-0.348L56.313,57.591z"/>
	<path fill="#FFFFFF" d="M59.744,53.105l0.611-0.611l4.193,4.193c1.416,1.417,2.527,1.639,3.596,0.569
		c0.792-0.792,0.959-1.791,0.791-3.514l-4.915-4.915l0.611-0.611l6.665,6.665l-0.514,0.514l-1.181-1.042l-0.028,0.028
		c0.112,1.417-0.068,2.625-0.984,3.542c-1.375,1.375-2.847,1.18-4.569-0.542L59.744,53.105z"/>
	<path fill="#FFFFFF" d="M69.422,43.093c0.806-0.805,1.653-1.042,2.833-1.194l-1.249-1.194l-2.75-2.75l0.611-0.611l9.984,9.984
		l-0.528,0.528l-0.917-0.806l-0.041,0.042c0,1.083-0.25,2.306-1.139,3.194c-1.68,1.68-3.998,1.528-6.248-0.722
		C67.826,47.413,67.84,44.676,69.422,43.093z M75.769,49.661c0.735-0.736,1-1.777,1-3.193l-3.958-3.958
		c-1.333,0.083-2.152,0.43-2.806,1.083c-1.333,1.333-1.055,3.639,0.626,5.319C72.395,50.676,74.352,51.078,75.769,49.661z"/>
	<path fill="#FFFFFF" d="M72.353,36.192c-0.348-0.348-0.306-0.806,0-1.111c0.306-0.306,0.764-0.348,1.111,0
		c0.319,0.319,0.292,0.792-0.014,1.098C73.145,36.484,72.672,36.511,72.353,36.192z M74.741,38.108l0.611-0.611l6.665,6.665
		l-0.611,0.611L74.741,38.108z"/>
	<path fill="#FFFFFF" d="M80.185,32.331c1.61-1.61,4.276-1.722,6.513,0.515c2.207,2.207,2.097,4.874,0.486,6.484
		c-1.598,1.597-4.264,1.708-6.471-0.5C78.477,36.594,78.588,33.928,80.185,32.331z M86.642,38.788
		c1.347-1.347,1.167-3.554-0.583-5.304c-1.764-1.764-3.986-1.959-5.333-0.612s-1.138,3.556,0.626,5.32
		C83.102,39.942,85.295,40.135,86.642,38.788z"/>
</g>
<g>
	<g>
		<path fill="#FFFFFF" d="M197.71,110.155c-10.326,0-19.988-7.749-26.252-13.657c-6.418,6.098-15.811,13.657-26.173,13.657
			c-13.406,0-21.095-7.657-21.095-21.008V68.141h10.503v21.006c0,7.559,2.969,10.505,10.593,10.505
			c8.236,0,17.395-9.159,22.313-14.077c5.754-5.754,17.434-17.434,30.111-17.434c10.329,0,19.995,7.752,26.257,13.659
			c6.264-5.91,15.929-13.659,26.257-13.659c12.677,0,24.357,11.68,29.97,17.293l3.713,3.713l-3.715,3.718
			c-5.582,5.58-17.154,17.152-29.765,17.152c-0.092,0-0.182,0-0.272,0c-10.39-0.138-20.124-7.867-26.18-13.531
			C217.711,102.396,208.041,110.155,197.71,110.155z M178.974,89.147c5.069,4.741,12.288,10.505,18.736,10.505
			s13.667-5.764,18.736-10.505c-5.069-4.741-12.285-10.503-18.736-10.503S184.043,84.406,178.974,89.147z M231.504,89.131
			c4.872,4.485,12.259,10.298,18.79,10.382c6.559-0.023,13.608-5.639,18.665-10.367c-5.069-4.741-12.282-10.503-18.734-10.503
			C243.781,78.644,236.573,84.393,231.504,89.131z"/>
		<rect x="124.19" y="41.884" fill="#FFFFFF" width="10.503" height="10.503"/>
		<path fill="#FFFFFF" d="M223.968,78.696c-3.231-3.145-6.72-5.352-10.503-8.281c0-6.222,0-50.918,0-50.918h10.503
			C223.967,21.161,223.86,66.835,223.968,78.696z"/>
		<path fill="#FFFFFF" d="M283.909,85.28c-2.862-3.205-6.9-6.585-10.503-10.128c0-5.581,0-55.656,0-55.656h10.503
			C283.908,20.989,283.801,74.642,283.909,85.28z"/>
	</g>
	<path fill="#FFFFFF" d="M299.951,104.558c-1.095,0-2.192-0.233-3.265-0.712c-3.203-1.427-5.442-4.721-5.442-8.008
		c0-3.156,1.533-7.358,4.901-9.134c1.881-1.001,5.06-1.549,9.448,1.458l-1.082,1.574c-2.898-1.984-5.42-2.435-7.476-1.343
		c-2.547,1.343-3.881,4.761-3.881,7.445c0,2.516,1.813,5.15,4.31,6.263c1.368,0.613,4.092,1.25,6.947-1.325l1.281,1.418
		C303.957,103.756,301.967,104.558,299.951,104.558z"/>
	<path fill="#FFFFFF" d="M320.834,105.376c-0.846,0-1.885-0.152-2.74-0.952c-0.976-0.908-1.449-2.391-1.449-4.534V73.519h1.909
		V99.89c0,1.539,0.292,2.625,0.84,3.135c0.557,0.526,1.427,0.454,2.127,0.41c0.208-0.016,0.398-0.028,0.557-0.028v1.909
		c-0.121,0-0.264,0.012-0.423,0.022C321.418,105.358,321.139,105.376,320.834,105.376z"/>
	<rect x="283.522" y="104.773" fill="#FFFFFF" width="2.138" height="2.32"/>
</g>
</svg>
